<svg width="83" height="19" viewBox="0 0 83 19" fill="none" xmlns="http://www.w3.org/2000/svg">
<g clip-path="url(#clip0_1613_1614)">
<path fill-rule="evenodd" clip-rule="evenodd" d="M9.80847 10.2931H5.83359C5.39188 10.2931 5.24905 10.0223 5.24905 9.65263C5.24905 9.35311 5.24675 0.236328 5.24675 0.236328H3.84961V10.937C3.84961 11.386 4.23892 11.6826 4.52572 11.6826H9.80847V10.2931Z" fill="#D8ECF1"/>
<path fill-rule="evenodd" clip-rule="evenodd" d="M9.80849 12.2113V13.6037H2.75138C2.26819 13.6037 1.93359 13.2432 1.93359 12.777C1.9382 12.2297 1.93359 0.234375 1.93359 0.234375H3.32497V11.3461C3.32497 11.8336 3.53748 12.2113 4.13354 12.2113H9.80849Z" fill="#D8ECF1"/>
<path fill-rule="evenodd" clip-rule="evenodd" d="M0.00585938 0.236328H1.4053V13.1704C1.4053 13.639 1.63969 14.134 2.32444 14.134H9.80945V15.5229H1.66849C0.739559 15.5229 0.00585938 14.7549 0.00585938 13.8385V0.236328Z" fill="#D8ECF1"/>
<path fill-rule="evenodd" clip-rule="evenodd" d="M5.77148 0.236328H7.17035V7.83134C7.17035 8.1073 7.2959 8.37117 7.69385 8.37117H9.80971V9.76473H6.48215C5.97017 9.76473 5.77148 9.44049 5.77148 9.07025V0.236328Z" fill="#D8ECF1"/>
<path fill-rule="evenodd" clip-rule="evenodd" d="M7.69979 5.46571H11.6741C12.1164 5.46571 12.2592 5.73706 12.2592 6.10672C12.2592 6.4051 12.2609 15.5219 12.2609 15.5219H13.6581V4.82182C13.6581 4.3734 13.2688 4.07617 12.982 4.07617H7.69922L7.69979 5.46571Z" fill="#D8ECF1"/>
<path fill-rule="evenodd" clip-rule="evenodd" d="M7.69922 3.54475V2.15234H14.7569C15.2395 2.15234 15.5747 2.51281 15.5747 2.97905C15.5695 3.52578 15.5747 15.5211 15.5747 15.5211H14.1833V4.40998C14.1833 3.92189 13.9702 3.54475 13.3753 3.54475H7.69922Z" fill="#D8ECF1"/>
<path fill-rule="evenodd" clip-rule="evenodd" d="M17.5028 15.5229H16.1039V2.58882C16.1039 2.12085 15.869 1.62586 15.1842 1.62586H7.69922V0.236328H15.8413C16.7697 0.236328 17.5028 1.00555 17.5028 1.92136V15.5229Z" fill="#D8ECF1"/>
<path fill-rule="evenodd" clip-rule="evenodd" d="M11.7374 15.5225H10.338V7.92868C10.338 7.65215 10.2119 7.38828 9.81509 7.38828H7.69922V5.99414H11.0256C11.5376 5.99414 11.7374 6.31953 11.7374 6.6892V15.5225Z" fill="#D8ECF1"/>
<path fill-rule="evenodd" clip-rule="evenodd" d="M49.6016 8.91332C49.6016 8.43615 49.9627 8.05269 50.4384 8.05269H51.6886V6.64648H50.2068C49.0798 6.64648 48.1895 7.55828 48.1895 8.68106V15.5212H49.6027L49.6016 8.91332Z" fill="#D8ECF1"/>
<path fill-rule="evenodd" clip-rule="evenodd" d="M27.6387 15.5206H29.0508V6.62109H27.6387V15.5206Z" fill="#D8ECF1"/>
<path fill-rule="evenodd" clip-rule="evenodd" d="M56.2079 7.59876C58.0301 7.59876 59.5101 9.07913 59.5101 10.8964C59.5101 12.7142 58.0301 14.1946 56.2079 14.1946C54.3869 14.1946 52.9068 12.7142 52.9068 10.8964C52.9068 9.07913 54.3869 7.59876 56.2079 7.59876ZM64.2302 7.59876C66.0524 7.59876 67.5342 9.07913 67.5342 10.8964C67.5342 12.7142 66.0524 14.1946 64.2302 14.1946C62.4092 14.1946 60.9268 12.7142 60.9268 10.8964C60.9268 9.07913 62.4092 7.59876 64.2302 7.59876ZM72.2537 7.59876C74.0747 7.59876 75.5554 9.07913 75.5554 10.8964C75.5554 12.7142 74.0747 14.1946 72.2537 14.1946C70.431 14.1946 68.9509 12.7142 68.9509 10.8964C68.9509 9.07913 70.431 7.59876 72.2537 7.59876ZM51.4941 18.9335H52.9189V14.2642C53.7672 15.0909 54.9271 15.6008 56.2079 15.6008C57.9034 15.6008 59.3898 14.7068 60.2191 13.3662C61.0489 14.7068 62.5359 15.6008 64.2302 15.6008C65.924 15.6008 67.4138 14.7068 68.2414 13.3662C69.0713 14.7068 70.5565 15.6008 72.2537 15.6008C74.8562 15.6008 76.9652 13.4949 76.9652 10.8964C76.9652 8.29784 74.8562 6.19141 72.2537 6.19141C70.5565 6.19141 69.0713 7.08595 68.2414 8.42777C67.4138 7.08595 65.924 6.19141 64.2302 6.19141C62.5359 6.19141 61.0489 7.08653 60.2191 8.42777C59.3898 7.08653 57.9034 6.19141 56.2079 6.19141C53.6054 6.19141 51.4941 8.29784 51.4941 10.8964V18.9335Z" fill="#D8ECF1"/>
<path fill-rule="evenodd" clip-rule="evenodd" d="M42.782 7.54871C44.2045 7.54871 45.4957 8.4513 45.9679 9.86038H39.5909C40.0626 8.4513 41.3589 7.54871 42.782 7.54871ZM42.782 15.5508C44.9491 15.5508 46.8006 14.0934 47.3103 11.9979H45.9443C45.4738 13.3408 44.2085 14.2434 42.782 14.2434C41.048 14.2434 39.6065 12.9396 39.4372 11.1694H47.4439V10.8952C47.4439 8.32827 45.3517 6.24023 42.782 6.24023C40.21 6.24023 38.1172 8.32827 38.1172 10.8952C38.1172 13.4616 40.21 15.5508 42.782 15.5508Z" fill="#D8ECF1"/>
<path fill-rule="evenodd" clip-rule="evenodd" d="M35.0047 15.5206L38.5413 6.62109H36.9294L34.0833 13.7838L31.2372 6.62109H29.627L33.1624 15.5206H35.0047Z" fill="#D8ECF1"/>
<path fill-rule="evenodd" clip-rule="evenodd" d="M77.6641 15.5202H79.0779V3.57031H77.6641V15.5202Z" fill="#D8ECF1"/>
<path fill-rule="evenodd" clip-rule="evenodd" d="M22.781 3.57227V13.2823C22.7856 13.7653 23.0649 14.1424 23.6172 14.1424H27.0881V15.5204L22.3053 15.5199C21.7017 15.5199 21.3516 15.1519 21.3516 14.6196V3.57227H22.781Z" fill="#D8ECF1"/>
<path fill-rule="evenodd" clip-rule="evenodd" d="M81.6233 4.44485C81.7488 4.44485 81.8306 4.39714 81.8306 4.29366C81.8306 4.20225 81.7563 4.14476 81.6521 4.14476H81.3906V4.44485H81.6233ZM81.2288 4.00908H81.6694C81.9181 4.00908 82.0005 4.16315 82.0005 4.26951C82.0005 4.43221 81.8865 4.54834 81.7183 4.55754V4.56443C81.8035 4.59318 81.8657 4.67941 81.9481 4.81222L82.0702 5.00653H81.875L81.7851 4.85073C81.6584 4.6271 81.6112 4.58283 81.4891 4.58283H81.3906V5.00653H81.2288V4.00908ZM81.636 3.71875C81.2081 3.71875 80.8631 4.0637 80.8631 4.49257C80.8631 4.9203 81.2081 5.26869 81.636 5.26869C82.0644 5.26869 82.414 4.9203 82.414 4.49257C82.414 4.0637 82.0644 3.71875 81.636 3.71875ZM81.636 5.42334C81.1228 5.42334 80.707 5.00653 80.707 4.49257C80.707 3.97804 81.1228 3.56641 81.636 3.56641C82.1514 3.56641 82.5683 3.97804 82.5683 4.49257C82.5683 5.00653 82.1514 5.42334 81.636 5.42334Z" fill="#D8ECF1"/>
<path fill-rule="evenodd" clip-rule="evenodd" d="M27.6367 4.99917H29.0506V3.57227H27.6367V4.99917Z" fill="#D8ECF1"/>
</g>
<defs>
<clipPath id="clip0_1613_1614">
<rect width="82.5901" height="19" fill="white"/>
</clipPath>
</defs>
</svg>
