<svg width="108" height="58" viewBox="0 0 108 58" fill="none" xmlns="http://www.w3.org/2000/svg">
<g clip-path="url(#clip0_1569_535)">
<path d="M95.8071 46.1985C94.6092 46.1985 93.7283 45.3111 93.7283 44.1001C93.7283 42.8891 94.6092 42.0016 95.8071 42.0016C97.005 42.0016 97.8777 42.8891 97.8859 44.1001C97.8794 45.3111 97.005 46.1985 95.8071 46.1985ZM95.8071 41.5195C94.3183 41.5195 93.2266 42.6112 93.2266 44.1001C93.2266 45.5889 94.3183 46.6806 95.8071 46.6806C97.2959 46.6806 98.3876 45.5889 98.3876 44.1001C98.3876 42.6112 97.2959 41.5195 95.8071 41.5195Z" fill="#C1FCC3"/>
<path d="M95.9402 43.9479H95.3649V43.1275H95.9402C96.2376 43.1275 96.3635 43.3187 96.3635 43.5377C96.3635 43.7567 96.2376 43.9479 95.9402 43.9479ZM96.6021 44.1538C96.8407 44.0345 96.9862 43.8368 96.9862 43.5393C96.9862 42.9902 96.6152 42.5996 95.9794 42.5996H94.7227V45.5789H95.3649V44.5003H95.9402C96.1461 44.5003 96.2916 44.6392 96.3112 44.837L96.3913 45.5789H97.027L96.9469 44.7585C96.9208 44.5003 96.8015 44.2878 96.6037 44.1554" fill="#C1FCC3"/>
<path d="M56.0338 33.154H45.2083V20.7383H38.529V33.154H38.5273V33.1834L38.5355 33.1605L45.2083 39.8349H56.0338V46.6417H62.7132V20.7383H56.0338V33.154Z" fill="#C1FCC3"/>
<path d="M29.4373 33.6653C29.4373 37.13 26.6018 39.9671 23.1355 39.9671H16.9906V27.4207H23.2352C26.659 27.4207 29.4357 30.1973 29.4357 33.6228V33.6653H29.4373ZM23.3054 20.7332H16.9906V11.1562H10.3047V20.7561C10.3047 20.8623 10.3161 20.9636 10.321 21.0682V39.9949L17.0053 46.6791H23.0113C23.0995 46.6808 23.1682 46.6791 23.2581 46.6791H23.2989C30.4457 46.6791 36.2425 40.8611 36.2425 33.7143V33.6718C36.2425 26.5267 30.4489 20.7332 23.3038 20.7332" fill="#C1FCC3"/>
<path d="M84.2477 39.9697H78.1028C74.6381 39.9697 71.8009 37.1342 71.8009 33.6679V33.6254C71.8009 30.1999 74.5776 27.4233 78.0031 27.4233H84.2477V39.9697ZM84.2477 20.2667V20.7374H77.9328C70.7877 20.7374 64.9941 26.531 64.9941 33.6761V33.7186C64.9941 40.8637 70.7861 46.6834 77.9312 46.6834H77.9753C78.0635 46.6834 78.1371 46.6834 78.2253 46.6834H84.2379L90.9189 40.004L90.9319 11.1621H84.2461V20.2684L84.2477 20.2667Z" fill="#C1FCC3"/>
</g>
<defs>
<clipPath id="clip0_1569_535">
<rect width="107.077" height="57.8424" fill="white"/>
</clipPath>
</defs>
</svg>
