<svg width="94" height="19" viewBox="0 0 94 19" fill="none" xmlns="http://www.w3.org/2000/svg">
<path d="M5.72662 6.82454C4.28291 6.82454 2.93383 7.73655 2.93383 9.81109C2.93383 11.7013 3.78095 12.9107 5.68336 12.9107C6.98108 12.9107 8.52436 12.1078 8.52436 9.85344C8.52391 7.87127 7.56009 6.82454 5.72662 6.82454ZM5.51439 14.9997C1.80779 14.9997 0 13.0905 0 9.98862C0 6.78128 2.68104 4.75 5.93795 4.75C9.09797 4.75 11.4573 6.25499 11.4573 9.72232C11.4568 12.9644 8.83392 14.9997 5.51439 14.9997Z" fill="#D8ECF1"/>
<path d="M18.4733 5.92494C18.0773 5.84339 17.7181 5.79157 17.4099 5.79157C16.6025 5.79157 16.1397 6.11464 16.1397 6.89057V7.53763H18.0052V9.25439H16.1397V13.1759C16.6611 13.2237 17.2211 13.2886 17.6826 13.3616V14.808H11.8951V13.3616C12.3583 13.2886 12.918 13.2237 13.447 13.1759V9.25439H11.7852V7.53763H13.4465V6.91941C13.4465 4.97959 14.5793 4 17.1342 4C17.6019 4 18.1061 4.03064 18.6351 4.11535L18.4733 5.92494Z" fill="#D8ECF1"/>
<path d="M25.3076 5.92494C24.8971 5.84339 24.5335 5.79157 24.2357 5.79157C23.4196 5.79157 22.9623 6.11464 22.9623 6.89057V7.53763H24.8088V9.25439H22.9623V13.1759C23.485 13.2237 24.041 13.2886 24.5056 13.3616V14.808H18.7285V13.3616C19.1994 13.2886 19.7347 13.2237 20.2704 13.1759V9.25439H18.6055V7.53763H20.2695V6.91941C20.2695 4.97959 21.4095 4 23.9572 4C24.4267 4 24.9336 4.03064 25.459 4.11535L25.3076 5.92494Z" fill="#D8ECF1"/>
<path d="M28.3326 6.78082C27.4318 6.78082 26.687 6.19459 26.687 5.46418C26.687 4.7252 27.4318 4.14844 28.3326 4.14844C29.245 4.14844 29.9858 4.7252 29.9858 5.46418C29.9858 6.18288 29.245 6.78082 28.3326 6.78082ZM25.4434 14.8077V13.3613C25.9093 13.2883 26.4531 13.2234 26.9754 13.1757V9.2307C26.5649 9.17528 25.9557 9.11265 25.4434 9.09553V7.66353C26.7235 7.53737 28.1875 7.48239 29.6817 7.53196V13.1752C30.1733 13.223 30.696 13.2879 31.1024 13.3609V14.8073L25.4434 14.8077Z" fill="#D8ECF1"/>
<path d="M35.4043 14.9534C32.5682 14.9534 31.0195 13.7575 31.0195 11.4041C31.0195 9.21148 32.4231 7.39648 35.7891 7.39648C36.4501 7.39648 37.1796 7.48345 37.81 7.63215V10.123H36.0748C36.0063 9.82745 35.9617 9.55439 35.9103 9.30611C35.7796 9.25834 35.6003 9.25519 35.4277 9.25519C34.4909 9.25519 33.8209 9.9419 33.8209 11.1364C33.8209 12.3792 34.4292 13.0271 36.0067 13.0271C36.5596 13.0271 37.1796 12.9253 37.6951 12.7369L37.8785 14.665C37.0755 14.852 36.3442 14.9534 35.4043 14.9534Z" fill="#D8ECF1"/>
<path d="M42.5776 8.99068C41.8007 8.99068 41.2357 9.49129 41.1704 10.2406H43.8271C43.8564 9.43046 43.3602 8.99068 42.5776 8.99068ZM46.3955 11.7208H41.1451C41.1704 12.695 41.8706 13.2434 43.3251 13.2434C44.1966 13.2434 45.0982 13.0906 45.9178 12.7865L46.1625 14.4735C45.1721 14.8074 43.9861 14.9777 42.9056 14.9777C40.0042 14.9777 38.4141 13.7985 38.4141 11.2504C38.4141 9.01772 39.9245 7.36133 42.6474 7.36133C45.3059 7.36133 46.4734 8.83838 46.4734 10.7503C46.4739 11.0562 46.4468 11.3689 46.3955 11.7208Z" fill="#D8ECF1"/>
<path d="M55.5428 9.30197C55.2409 9.30197 55.0868 9.30197 54.8953 9.33036V13.1622C55.0007 13.1816 55.1841 13.1866 55.4901 13.1866C56.64 13.1866 57.556 12.5791 57.556 11.2373C57.5565 10.1243 57.2645 9.30197 55.5428 9.30197ZM55.2774 14.9011C54.2784 14.9011 52.6603 14.8375 52.3152 14.8375H51.0918V13.5835C51.4491 13.5105 51.8853 13.456 52.3152 13.4393V9.06946C51.8853 9.0582 51.4491 9.01133 51.0918 8.95952V7.66811H52.2467C53.0167 7.66811 54.3199 7.63477 55.6784 7.63477C58.4243 7.63477 60.3425 8.49495 60.3425 11.0886C60.3425 13.5268 58.3252 14.9011 55.2774 14.9011Z" fill="#D8ECF1"/>
<path d="M60.2715 14.8374V13.5834C60.6284 13.5099 61.06 13.4554 61.4804 13.4392V9.06932C61.06 9.05806 60.6284 9.01119 60.2715 8.95938V7.66797H67.1521V9.62896H65.1469C65.0987 9.44917 65.0843 9.37978 65.0555 9.23018H64.0641V10.4977H64.9027C64.9338 10.3589 64.9406 10.3364 64.9946 10.2035H66.7006V12.1491H64.9946C64.9406 12.0324 64.9338 11.9968 64.9027 11.8716H64.0641V13.2657H65.0622C65.0987 13.0684 65.1136 13.0197 65.1523 12.8282H67.1944V14.8369H60.2715" fill="#D8ECF1"/>
<path d="M71.9639 9.22912C71.9296 9.22912 71.8179 9.22912 71.6971 9.24579V11.1901C71.8107 11.2131 71.8647 11.2131 71.9134 11.2131C72.6168 11.2131 73.2517 10.8549 73.2517 10.179C73.2517 9.67205 72.9106 9.22912 71.9639 9.22912ZM72.0941 12.6361C72.0369 12.6361 71.8787 12.6361 71.6971 12.6298V13.4372C72.1198 13.4539 72.5451 13.5084 72.9142 13.5814V14.8354H67.9121V13.5814C68.278 13.5084 68.702 13.4539 69.1138 13.4372V9.06735C68.702 9.05609 68.278 9.00923 67.9121 8.95741V7.66645H69.0972C69.5433 7.66645 70.9243 7.61914 71.9449 7.61914C74.4611 7.61914 75.8214 8.44914 75.8214 10.0159C75.8214 11.401 74.6152 12.6361 72.0941 12.6361Z" fill="#D8ECF1"/>
<path d="M80.7465 9.33453C79.8529 9.33453 78.9333 9.85677 78.9333 11.2144C78.9333 12.4405 79.4533 13.1808 80.6947 13.1808C81.5057 13.1808 82.5822 12.7622 82.5822 11.2369C82.5822 9.97753 81.9838 9.33453 80.7465 9.33453ZM80.5662 14.9823C77.6275 14.9823 76.1797 13.6287 76.1797 11.3595C76.1797 9.05291 78.3137 7.52539 80.9519 7.52539C83.3901 7.52539 85.3358 8.53427 85.3358 11.1311C85.3353 13.4692 83.2387 14.9823 80.5662 14.9823Z" fill="#D8ECF1"/>
<path d="M91.833 10.0413C91.7861 9.811 91.7298 9.56858 91.7037 9.30904H90.9769V13.4396C91.3941 13.4563 91.8217 13.5108 92.1795 13.5838V14.8378H87.186V13.5838C87.5474 13.5104 87.9808 13.4559 88.4013 13.4396V9.30904H87.665C87.6456 9.56858 87.5821 9.81145 87.5334 10.0413H85.5566V7.66797H93.8125V10.0413H91.833Z" fill="#D8ECF1"/>
<path d="M93.0499 14.2254H93.1125C93.1941 14.2254 93.254 14.1929 93.254 14.1217C93.254 14.0681 93.2153 14.0199 93.1125 14.0199C93.0837 14.0199 93.058 14.0212 93.0499 14.0212V14.2254ZM93.0499 14.5439H92.9575V13.9546C93.0076 13.9483 93.0499 13.9406 93.1207 13.9406C93.2022 13.9406 93.2617 13.96 93.2995 13.9911C93.327 14.0131 93.3469 14.0541 93.3469 14.1114C93.3469 14.1925 93.2995 14.233 93.2401 14.2497V14.261C93.2856 14.261 93.3176 14.3132 93.3266 14.4015C93.3469 14.4849 93.3599 14.5273 93.3662 14.5435H93.268C93.2536 14.5273 93.2468 14.47 93.2365 14.3957C93.2229 14.3209 93.1792 14.2862 93.1062 14.2862H93.0495L93.0499 14.5439ZM93.1378 13.7946C92.9219 13.7946 92.7345 13.9911 92.7345 14.2389C92.7345 14.4813 92.9215 14.6872 93.1418 14.6872C93.3748 14.6872 93.5514 14.4813 93.5514 14.2434C93.5514 13.9911 93.3743 13.7946 93.1418 13.7946H93.1378ZM93.1423 13.709C93.4316 13.709 93.6415 13.9482 93.6415 14.2389C93.6415 14.5439 93.4311 14.7665 93.1378 14.7665C92.8625 14.7665 92.6309 14.5435 92.6309 14.2389C92.6309 13.9482 92.8625 13.709 93.1378 13.709H93.1423Z" fill="#D8ECF1"/>
</svg>
