<svg width="46" height="20" viewBox="0 0 46 20" fill="none" xmlns="http://www.w3.org/2000/svg">
<g clip-path="url(#clip0_1613_1568)">
<path fill-rule="evenodd" clip-rule="evenodd" d="M41.3387 13.7578C41.8057 13.7549 42.1857 14.1291 42.1857 14.5904C42.1857 15.0516 41.8086 15.4258 41.3416 15.4258C40.8746 15.4287 40.4946 15.0545 40.4946 14.5933H35.6387L35.3051 15.3852H34.957L36.5641 11.1849C36.303 11.0978 36.1521 10.9876 36.1521 10.8716C36.1521 10.7149 36.4045 10.596 36.8193 10.5119L37.1355 9.66197C36.0216 9.13113 35.4299 8.01434 35.3718 7.41678C35.3544 7.21953 35.3457 7.19922 35.3312 7.05709C35.2645 7.05418 35.192 7.08609 35.163 7.03678C35.0673 6.88304 35.1514 6.52335 35.221 6.52335H35.3341C35.6039 5.11067 36.9267 4.93083 37.8375 4.90472C37.8172 4.8177 37.8085 4.72487 37.8114 4.63495C37.8094 4.60207 37.8094 4.5692 37.8114 4.53632C37.707 4.53052 37.6257 4.4435 37.6315 4.33907C37.6344 4.23464 37.7244 4.15632 37.8317 4.15922C38.0667 4.12731 38.3045 4.11281 38.5424 4.11861C38.7889 4.11281 39.0355 4.12441 39.2792 4.15922C39.3836 4.15922 39.4706 4.24625 39.4706 4.34777C39.4706 4.4522 39.3836 4.53922 39.2792 4.53922H39.2531C39.2569 4.57016 39.2569 4.60207 39.2531 4.63495C39.256 4.73067 39.2444 4.8264 39.2183 4.91922C40.1117 4.99464 41.2923 5.29922 41.5824 6.52335C41.5969 6.58426 41.6926 6.56396 41.7158 6.56396C41.7419 6.56396 41.8637 6.98457 41.7158 7.05419C41.7158 7.05419 41.6085 7.03678 41.6259 7.1238C41.622 7.23403 41.6095 7.34329 41.5882 7.45159C41.5882 7.98823 40.921 9.22686 39.7694 9.73449L40.0508 10.5206C40.4105 10.6076 40.628 10.7237 40.628 10.8629C40.628 10.9702 40.4975 11.0717 40.2741 11.153L41.2053 13.7637C41.2498 13.7559 41.2942 13.752 41.3387 13.752M39.4764 9.83021C39.1834 9.91144 38.8818 9.95205 38.5772 9.94335V10.3756C38.9514 10.3785 39.3285 10.4075 39.6998 10.4597L39.4764 9.83021ZM38.2842 14.0653L40.0276 14.045L39.6592 13.8536L38.2842 14.0653ZM40.6541 14.0972C40.7237 14.0015 40.8137 13.9232 40.9181 13.8652L39.9841 11.2458C39.5228 11.3473 39.0529 11.3995 38.5801 11.4053V12.3481C38.9514 12.438 39.2125 12.76 39.2212 13.1342C39.2212 13.2154 39.2096 13.2937 39.1863 13.3691L40.6512 14.0914L40.6541 14.0972ZM38.1508 4.53922C38.1527 4.57016 38.1527 4.60207 38.1508 4.63495C38.1508 4.72777 38.1421 4.8206 38.1189 4.91052H38.9456C38.9224 4.8177 38.9137 4.72197 38.9166 4.62625C38.9146 4.59337 38.9146 4.56146 38.9166 4.53052L38.1508 4.53922ZM37.1471 10.4452C37.5213 10.3959 37.9013 10.3698 38.2784 10.3698V9.93174C37.9796 9.93464 37.6779 9.87663 37.3995 9.7693L37.1471 10.4452ZM35.7489 14.2046L37.5967 13.4388C37.559 13.3401 37.5387 13.2386 37.5387 13.1342C37.5445 12.7136 37.8665 12.3626 38.29 12.3191V11.4053C37.8027 11.4053 37.3183 11.356 36.8425 11.2574L35.7489 14.2046ZM36.1957 14.2365L38.1073 13.9203C37.9419 13.8681 37.7969 13.7666 37.6925 13.6302L36.1957 14.2365ZM40.5236 14.3525C40.5265 14.3322 40.541 14.3119 40.541 14.2916L40.3176 14.1785L40.335 14.1901H37.5851L36.4886 14.338L40.5236 14.3554V14.3525ZM39.372 13.7172L39.0935 13.5722C39.0413 13.6505 38.9775 13.7201 38.9021 13.7782L39.372 13.7172Z" fill="#D8ECF1"/>
<path fill-rule="evenodd" clip-rule="evenodd" d="M31.4781 15.2969C31.3911 15.2128 31.3418 15.0939 31.3418 14.972C31.3418 14.7255 31.5419 14.5224 31.7914 14.5195C32.038 14.5195 32.241 14.7168 32.2468 14.9662C32.2497 15.2128 32.0525 15.4188 31.8059 15.4246C31.6841 15.4275 31.5652 15.3811 31.4781 15.2969ZM31.5391 15.2447C31.6087 15.3143 31.7044 15.355 31.8059 15.355C32.009 15.355 32.1714 15.1896 32.1743 14.9866C32.1743 14.7835 32.0119 14.6182 31.8088 14.6124C31.6058 14.6095 31.4404 14.769 31.4317 14.972C31.4288 15.0736 31.4665 15.1722 31.5391 15.2447ZM31.7102 15.2389H31.6319V14.7081H31.832C31.9568 14.7081 32.0177 14.7545 32.0177 14.8589C32.0206 14.8966 32.0061 14.9314 31.98 14.9604C31.9539 14.9866 31.919 15.004 31.8813 15.004L32.0322 15.2273H31.9423L31.8001 15.004H31.7073L31.7102 15.2389ZM31.803 14.9314C31.8726 14.9314 31.9336 14.9111 31.9336 14.8473C31.9336 14.7806 31.8726 14.769 31.8175 14.769H31.7102V14.9314H31.803Z" fill="#D8ECF1"/>
<path fill-rule="evenodd" clip-rule="evenodd" d="M42.775 15.2969C42.688 15.2128 42.6387 15.0939 42.6387 14.972C42.6387 14.7255 42.8388 14.5224 43.0854 14.5195C43.3349 14.5195 43.5379 14.7168 43.5408 14.9662C43.5466 15.2128 43.3494 15.4188 43.0999 15.4246C42.9781 15.4275 42.862 15.3811 42.775 15.2969ZM42.833 15.2447C42.9026 15.3143 43.0013 15.355 43.0999 15.355C43.3029 15.355 43.4683 15.1896 43.4683 14.9866C43.4712 14.7835 43.3087 14.6182 43.1057 14.6124C42.9026 14.6095 42.7344 14.769 42.7286 14.972C42.7257 15.0736 42.7634 15.1722 42.833 15.2447ZM43.0042 15.2389H42.9229V14.7139H43.1231C43.2507 14.7139 43.3116 14.7603 43.3116 14.8647C43.3116 14.9024 43.3 14.9401 43.2739 14.9662C43.2478 14.9953 43.2101 15.0098 43.1724 15.0098L43.3262 15.236H43.2333L43.0941 15.0098H43.0042V15.2389ZM43.0999 14.9401C43.1695 14.9401 43.2275 14.9198 43.2275 14.8531C43.2275 14.7893 43.1666 14.7777 43.1115 14.7777H43.0042V14.9401H43.0999Z" fill="#D8ECF1"/>
<path fill-rule="evenodd" clip-rule="evenodd" d="M44.8932 2.28174V16.7943C44.8612 17.534 44.2637 18.1199 43.5269 18.1402H2.5217C2.1475 18.1547 1.78491 18.0184 1.51223 17.7631C1.24246 17.5078 1.08292 17.1511 1.07422 16.7769V2.35716C1.07422 1.51594 1.61086 0.950289 2.40277 0.950289H43.495C43.8605 0.935785 44.2144 1.06922 44.4754 1.32159C44.7394 1.57105 44.8932 1.91914 44.899 2.28464M44.2782 2.28464C44.2724 2.08449 44.1854 1.89884 44.0374 1.7654C43.8895 1.63197 43.6951 1.56235 43.4979 1.57685H19.8915C19.8915 2.45869 19.8915 4.66037 19.8915 4.66037L20.0046 4.54433C20.2222 4.32678 21.0402 4.21655 21.6841 4.48632C22.1889 4.70098 22.4557 5.1825 22.4557 5.87869V14.0588C22.4557 14.6303 21.719 15.4222 20.3469 15.4222C18.9255 15.4222 18.2641 14.6187 18.2641 14.0588V2.11059C18.2641 1.69288 18.0118 1.65227 17.8261 1.57685H2.40567C1.90384 1.57685 1.70368 1.91624 1.70368 2.35716V16.7798C1.71239 16.9886 1.80521 17.183 1.96185 17.3222C2.11559 17.4614 2.31865 17.5311 2.5275 17.5194H43.5269C43.9214 17.502 44.2405 17.1888 44.2695 16.7943L44.2782 2.28464ZM27.9382 10.6127V14.0472C27.9382 14.5984 27.3232 15.4106 25.9947 15.4106H25.7249C24.3993 15.4106 23.7785 14.6071 23.7785 14.0472V5.66693C23.7785 5.19411 24.3412 4.30647 25.7133 4.30647H25.9889C27.3667 4.30647 27.9382 5.19411 27.9382 5.66693V9.62647H25.3855V14.3576C25.3884 14.4736 25.4406 14.5839 25.5277 14.6593C25.6147 14.7347 25.7278 14.7724 25.8438 14.7608C25.9599 14.7724 26.0788 14.7376 26.1687 14.6593C26.2586 14.5839 26.3167 14.4765 26.3254 14.3576C26.3254 14.3576 26.3254 10.7549 26.3254 10.6214L27.9382 10.6127ZM16.924 10.6127C16.924 10.7491 16.924 14.0472 16.924 14.0472C16.924 14.5984 16.3032 15.4106 14.9776 15.4106H14.7194C13.3938 15.4106 12.773 14.6071 12.773 14.0472V5.66693C12.773 5.19411 13.3357 4.30647 14.7078 4.30647H14.9863C16.3554 4.30647 16.924 5.1912 16.924 5.66693C16.924 5.66693 16.924 9.49304 16.924 9.62357H14.3742V14.3576C14.3771 14.4736 14.4293 14.5839 14.5164 14.6593C14.6034 14.7347 14.7165 14.7724 14.8325 14.7579C14.9486 14.7695 15.0675 14.7347 15.1574 14.6593C15.2473 14.5839 15.3025 14.4765 15.3141 14.3576C15.3141 14.3576 15.3199 10.752 15.3199 10.6127H16.924ZM14.3771 8.33563H15.3228V5.32464C15.3257 5.21151 15.2648 5.10708 15.1661 5.05197C14.9747 4.95044 14.7426 4.95044 14.5512 5.05197C14.4496 5.10128 14.3858 5.20281 14.3829 5.31594L14.3771 8.33563ZM30.8854 4.53563V4.70388L31.0014 4.62556C31.5932 4.18754 32.4402 4.30647 32.9797 4.58785C33.2756 4.73288 33.4583 5.04036 33.4438 5.36815V9.60907H31.8078V5.34204C31.8049 5.21731 31.7353 5.10418 31.6251 5.04327C31.4452 4.94464 31.2248 4.94464 31.0449 5.04327C30.9608 5.08968 30.8999 5.168 30.8767 5.26082V15.2394H29.2609V5.69304C29.2609 5.02876 28.6257 5.31304 28.6257 4.91273V4.53563H30.8854ZM5.01055 5.67563C5.01055 5.00846 4.37529 5.29853 4.37529 4.89243V4.51533H6.61468V14.2126C6.61468 14.3373 6.66689 14.4591 6.75681 14.5433C6.84674 14.6303 6.96857 14.6767 7.0933 14.6709C7.21804 14.6767 7.33987 14.6303 7.42979 14.5462C7.51971 14.4591 7.56613 14.3373 7.56323 14.2126V4.50662H8.87727V14.2126C8.87437 14.3692 8.95559 14.5172 9.08903 14.5955C9.25437 14.6854 9.45162 14.6854 9.61407 14.5955C9.7475 14.5143 9.82292 14.3634 9.81422 14.2097V4.50662H11.4357V13.586C11.4357 14.7608 10.2928 15.4106 8.2159 15.4106C6.14185 15.4106 4.99315 14.7753 4.99315 13.586L5.01055 5.67563ZM25.3855 8.33563H26.3283V5.32174C26.3283 5.20861 26.2674 5.10418 26.1687 5.04907C25.9773 4.95044 25.7481 4.95044 25.5538 5.04907C25.4551 5.09838 25.3913 5.20281 25.3884 5.31304L25.3855 8.33563ZM19.9031 14.3576C19.9379 14.5839 20.1322 14.7492 20.3585 14.7492C20.5848 14.7492 20.7791 14.5839 20.8168 14.3576V5.28113C20.8168 5.09838 20.6399 4.97945 20.3759 4.97945C20.1409 4.97945 19.9031 5.08098 19.9031 5.28113V14.3576Z" fill="#D8ECF1"/>
</g>
<defs>
<clipPath id="clip0_1613_1568">
<rect width="45.658" height="19" fill="white" transform="translate(0.171875 0.0449219)"/>
</clipPath>
</defs>
</svg>
