<svg width="101" height="19" viewBox="0 0 101 19" fill="none" xmlns="http://www.w3.org/2000/svg">
<g clip-path="url(#clip0_1568_550)">
<path d="M58.1018 13.801V6.91116H56.5129V11.5605L52.3715 6.91116H50.797V13.801H52.3854V9.10432L56.5129 13.801H58.1018ZM90.9002 9.87555C91.2266 9.87555 91.7777 9.77034 91.7777 9.08985C91.7777 8.60112 91.4576 8.3214 90.9002 8.3214H87.9984V9.87137L90.9002 9.87555ZM93.6113 13.801H91.6909L89.776 11.2808H87.9113V13.801H86.3237V6.91116H90.8131C92.3583 6.91116 93.277 7.7386 93.277 9.1238C93.277 9.95264 92.8184 10.8847 91.6149 11.175L93.611 13.801H93.6113ZM65.8903 5.19531C68.9312 5.19531 70.7506 6.831 70.7506 9.56077C70.7506 11.5201 69.4776 13.801 65.8903 13.801H62.0539V5.19531H65.8903ZM63.647 6.61948V12.3818H65.8903C67.1077 12.3818 69.1533 12.0039 69.1533 9.47393C69.1533 7.65873 67.9646 6.61948 65.8903 6.61948H63.647ZM95.9241 12.3921V11.0629H99.5907V9.65206H95.9241V8.3214H100.661V6.91116H94.3399V13.801H100.661V12.3921H95.9241ZM80.5325 12.3921V11.0629H84.1957V9.65206H80.5325V8.3214H85.2667V6.91116H78.9427V13.801H85.2667V12.3921H80.5325ZM73.1511 12.3921V11.0629H76.8121V9.65206H73.1511V8.3214H77.8854V6.91116H71.5641V13.801H77.8854V12.3921H73.1511ZM47.9183 6.91088V9.65178H43.7867V6.91088H42.1997V13.8007H43.7867V11.0626H47.9183V13.8007H49.5045V6.91088H47.9183ZM37.1843 12.5563C36.2564 12.5563 34.6948 12.2674 34.6948 10.3367C34.6948 8.95236 35.6038 8.15692 37.1843 8.15692C38.7649 8.15692 39.6706 8.95236 39.6706 10.3367C39.6706 12.2674 38.1123 12.5563 37.1843 12.5563ZM33.1106 10.4091C33.1106 12.0476 34.1768 13.9635 37.1843 13.9635C40.1919 13.9635 41.2595 12.0473 41.2595 10.4091C41.2595 8.11712 39.7352 6.74667 37.1843 6.74667C34.6335 6.74667 33.1106 8.11712 33.1106 10.4091ZM26.1309 12.1645C26.1309 12.1645 27.0323 12.4895 28.0401 12.4895C29.1161 12.4895 29.7872 12.342 30.1615 11.9613C30.4718 11.6468 30.5957 11.1233 30.5812 10.3501V5.20505H32.1701V10.5713C32.147 12.9482 30.9987 13.9638 28.3301 13.9638C27.0334 13.9638 26.1309 13.7564 26.1309 13.7564" fill="#D8ECF1"/>
<path d="M19.5142 2.14866C16.8707 0.852797 13.8284 0.121094 10.6616 0.121094C7.4949 0.121094 4.44479 0.856696 1.79657 2.16118C0.856963 4.43088 0.339844 6.90794 0.339844 9.50272C0.339844 12.0975 0.856963 14.5726 1.79518 16.8423C4.44479 18.1473 7.48377 18.8816 10.6616 18.8816C13.8395 18.8816 16.8721 18.1501 19.5156 16.854C20.4574 14.5807 20.9759 12.0994 20.9759 9.50272C20.9759 6.90376 20.4566 4.42253 19.5142 2.14866Z" fill="#D8ECF1"/>
<path d="M7.84395 7.37326C7.41812 8.22158 7.12143 9.17176 7.00036 10.2555L6.74904 10.2792C5.85953 10.3607 4.93856 10.4295 4.04627 10.7741L4.10973 11.1359C5.56506 12.9436 7.7688 14.0362 7.79023 14.0452L7.84172 13.9909L7.36552 13.233C7.25141 13.1473 6.95416 13.0791 6.94442 13.0777C5.95249 12.7457 5.25585 11.4484 5.1409 11.2269C5.95944 11.2233 6.67695 11.4607 7.37164 11.6906C7.83031 11.8431 8.26254 11.985 8.71008 12.0574C9.49717 12.184 10.3199 12.0371 11.0605 11.9447C11.6619 11.8723 12.245 11.8737 12.8262 11.9118C12.8957 11.9975 13.5069 12.7365 14.0895 13.0407C14.8209 13.4242 16.9495 14.0596 17.0552 14.0958C17.0984 14.137 17.9183 14.9622 18.4229 15.918C16.0369 17.0157 13.3539 17.596 10.6594 17.596C7.96502 17.596 5.26531 17.0107 2.87037 15.9013C2.08049 13.8551 1.67943 11.7036 1.67943 9.49935C1.67943 7.29505 2.08105 5.14725 2.87176 3.10076C5.26531 1.99138 7.95834 1.40468 10.6594 1.40468C13.3605 1.40468 16.0502 1.98804 18.4368 3.08907C19.2303 5.14029 19.6319 7.29644 19.6319 9.49935C19.6319 11.52 19.2966 13.4924 18.6353 15.3725C17.8752 14.0529 17.5668 13.6541 17.5668 13.6541C17.5571 13.6477 16.4928 13.0925 16.2289 12.8656C16.0193 12.6839 15.92 12.3129 15.8031 11.8848C15.6436 11.2903 15.4413 10.5547 14.864 9.94717L15.505 9.6847C15.3274 8.45008 13.8646 7.6474 13.8493 7.6385L13.7663 7.67746C14.3252 8.37772 14.488 8.97416 14.488 9.33737C14.488 9.52245 14.4588 9.64574 14.4463 9.69501C14.2779 9.63378 13.1977 9.28587 10.7421 9.37828C10.3808 9.38941 9.86455 9.3741 9.55673 9.07352C9.38195 8.90513 9.29428 8.66216 9.29428 8.35239V8.34877C9.29567 7.49683 9.65331 6.34904 9.70619 6.18761L10.3472 6.26415C11.1092 5.83971 11.4087 5.47706 11.4496 5.41917L11.414 5.38076C10.7624 5.46565 9.91048 5.63626 9.91048 5.63626C9.96753 5.48736 10.1395 4.99668 10.1395 4.44199C10.1395 3.84276 9.9397 3.16979 9.17766 2.77986L9.09611 2.81827C9.10251 2.82384 9.53948 3.3006 9.53948 3.95131C9.53948 4.13222 9.50469 4.32788 9.41841 4.53049C9.16931 4.42751 9.06689 4.41555 8.76909 4.40803C8.62352 3.89843 8.17821 3.46341 7.57064 3.24438L7.49744 3.28835C7.5044 3.29336 8.14621 3.75064 8.18378 4.4264C7.85954 4.45228 7.72149 4.4829 7.3221 4.60592C7.15566 4.32537 6.77353 4.12498 6.29482 4.06709L6.23275 4.11524C6.23776 4.11802 6.8022 4.31424 6.92883 4.74592C6.57871 4.90818 6.21605 5.15505 5.96974 5.35432L5.99423 5.4484C7.45792 4.87979 8.82503 4.71474 9.17432 5.12833C9.2336 5.19735 9.26283 5.28001 9.26283 5.37687C9.26283 5.49933 9.21607 5.63793 9.12367 5.79991C8.3992 5.958 7.31542 6.26638 6.42591 6.60175L6.54364 6.97554C6.54364 6.97554 7.43955 7.15784 7.7791 7.22742C7.7791 7.22742 7.90713 7.24495 7.84312 7.37354M18.8832 2.70332C16.4151 1.54106 13.5907 0.888672 10.6592 0.888672C7.72761 0.888672 4.90043 1.5444 2.4245 2.71362C1.5887 4.82329 1.13281 7.11303 1.13281 9.50547C1.13281 11.8979 1.5887 14.1785 2.42032 16.2862C4.89459 17.4568 7.71564 18.1134 10.6592 18.1134C13.6027 18.1134 16.4193 17.4618 18.8883 16.2973C19.7221 14.1885 20.1785 11.8979 20.1785 9.50547C20.1785 7.11303 19.7199 4.81633 18.8832 2.70332Z" fill="#071A27"/>
</g>
<defs>
<clipPath id="clip0_1568_550">
<rect width="101" height="19" fill="white"/>
</clipPath>
</defs>
</svg>
